<?xml version="1.0" encoding="UTF-8"?>
<svg width="44px" height="36px" viewBox="0 0 44 36" version="1.1" xmlns="http://www.w3.org/2000/svg" xmlns:xlink="http://www.w3.org/1999/xlink">
    <title>CA377802-0ED4-4EE9-85DC-990614C769DA@1x</title>
    <g id="Phone-Chromecast" stroke="none" stroke-width="1" fill="none" fill-rule="evenodd">
        <g id="Chromecast---10---Static-receiver---Alt" transform="translate(-772.000000, -856.000000)" fill="#FFFFFF" fill-rule="nonzero">
            <g id="ic_cast_48px" transform="translate(772.000000, 856.000000)">
                <path d="M40,0 L4,0 C1.79,0 0,1.79 0,4 L0,10 L4,10 L4,4 L40,4 L40,32 L26,32 L26,36 L40,36 C42.21,36 44,34.21 44,32 L44,4 C44,1.79 42.21,0 40,0 Z M0,30 L0,36 L6,36 C6,32.69 3.31,30 0,30 Z M0,22 L0,26 C5.52,26 10,30.48 10,36 L14,36 C14,28.27 7.73,22 0,22 Z M0,14 L0,18 C9.94,18 18,26.06 18,36 L22,36 C22,23.85 12.15,14 0,14 Z" id="Shape"></path>
            </g>
        </g>
    </g>
</svg>